# xmcd CD database file
#
# Track frame offsets:
#	150
#	22545
#	45860
#	67707
#	88627
#	108492
#	129665
#	148977
#	170500
#	194390
#
# Disc length: 2886 seconds
#
# Revision: 2
# Processed by: cddbd v1.5.1PL0 Copyright (c) Steve Scherf et al.
# Submitted via: CDex 1.51
#
DISCID=7b0b440a
DTITLE=松田聖子 - Glorious Revolution
DYEAR=1994
DGENRE=JPop
TTITLE0=Back For More
TTITLE1=There For You (Album Mix)
TTITLE2=もう一度、初めから
TTITLE3=わがままなあなた
TTITLE4=Babies Breath
TTITLE5=はじまりはBreak Up
TTITLE6=天下のプレイガール
TTITLE7=未来へのDistance
TTITLE8=わたしにできるすべてのこと
TTITLE9=続・・・パラダイス
EXTD=YEAR: 1994
EXTT0=
EXTT1=
EXTT2=
EXTT3=
EXTT4=
EXTT5=
EXTT6=
EXTT7=
EXTT8=
EXTT9=
PLAYORDER=
